<svg aria-hidden="true" xmlns="http://www.w3.org/2000/svg" viewBox="0 0 3599.75 339.67" stroke="currentColor" fill="currentColor"><path stroke-width="16" fill="none" d="M2227.2,220.9c16.8,0,30.4-20.4,30.4-45.7,0-35.7-30.4-63.6-30.4-63.6s-30.4,27.9-30.4,63.6C2196.8,200.4,2210.4,220.9,2227.2,220.9Z" transform="translate(-157.9 -100.74)"/><path stroke-width="16" fill="none" d="M2255.1,158.4c28.8-17.8,66.2-9.6,66.2-9.6s-5.4,40.9-34.5,61.4c-16.7,11.7-35.9,14.4-47.7,7.8" transform="translate(-157.9 -100.74)"/><path stroke-width="16" fill="none" d="M2278.4,149.1a108.79,108.79,0,0,0-7.4-25.6,110.19,110.19,0,0,0-24.5,13.5" transform="translate(-157.9 -100.74)"/><path stroke-width="16" fill="none" d="M2200.2,158.4c-28.8-17.8-66.2-9.6-66.2-9.6s5.4,40.9,34.5,61.4c16.7,11.7,35.9,14.4,47.7,7.8" transform="translate(-157.9 -100.74)"/><path stroke-width="16" fill="none" d="M2176.9,149.1a108.79,108.79,0,0,1,7.4-25.6,114.7,114.7,0,0,1,24.5,13.5" transform="translate(-157.9 -100.74)"/><path stroke-width="7" d="M349.2,222.4H266.7V433.6H243.9V222.4H161.4V202.2H349.2Z" transform="translate(-157.9 -100.74)"/><path stroke-width="7" d="M522,433.6H499.8V338.7c0-19.3-3.3-33.8-9.9-43.4s-16.4-14.4-29.2-14.4a49.13,49.13,0,0,0-18.8,3.8A67.78,67.78,0,0,0,424.5,295a71.17,71.17,0,0,0-14.2,15.3,66.25,66.25,0,0,0-9,19.2v104H379.2v-238h22.2V302.1a77,77,0,0,1,28-30.3,72.83,72.83,0,0,1,38.8-11.1c9.8,0,18,1.8,24.8,5.4a45.25,45.25,0,0,1,16.6,15,67.42,67.42,0,0,1,9.5,23.2,135.66,135.66,0,0,1,3,29.8Z" transform="translate(-157.9 -100.74)"/><path stroke-width="7" d="M642.6,436.9a82,82,0,0,1-34.1-7,84.23,84.23,0,0,1-26.9-19.2,90.44,90.44,0,0,1-17.8-28.2,93.08,93.08,0,0,1-6.4-34.2,88.9,88.9,0,0,1,6.4-33.8,86.66,86.66,0,0,1,17.6-27.7,84.48,84.48,0,0,1,26.9-18.9,85.51,85.51,0,0,1,68,0A81.43,81.43,0,0,1,702.9,287a90,90,0,0,1,23.5,61v5.2a14.49,14.49,0,0,1-.3,3.6H580.6a71.76,71.76,0,0,0,20.2,45.3,61.27,61.27,0,0,0,19.4,13.2,56.92,56.92,0,0,0,23.3,4.7,59.92,59.92,0,0,0,16.3-2.3,63.06,63.06,0,0,0,15-6.2,54.78,54.78,0,0,0,12.4-9.6,42.65,42.65,0,0,0,8.5-12.5l19.2,5.2a56.33,56.33,0,0,1-11.1,17.1,78.69,78.69,0,0,1-37.5,22.2A94.24,94.24,0,0,1,642.6,436.9Zm62.6-97.2a68.11,68.11,0,0,0-20-44.3A61.72,61.72,0,0,0,666,282.7a60.07,60.07,0,0,0-23.3-4.6A60.7,60.7,0,0,0,586.4,315a75.6,75.6,0,0,0-6,24.8H705.2v-.1Z" transform="translate(-157.9 -100.74)"/><path stroke-width="7" d="M1015.5,399.7q-32.25,35.55-74.3,35.5A93.93,93.93,0,0,1,898,425.1a113.84,113.84,0,0,1-34.2-26.7,126.69,126.69,0,0,1-22.7-37.6,120.51,120.51,0,0,1-8.2-43.2,123.89,123.89,0,0,1,8-44.3A117.88,117.88,0,0,1,863.2,236a109.88,109.88,0,0,1,33.9-25.8,94.25,94.25,0,0,1,42.7-9.6,119.56,119.56,0,0,1,31,3.8,95.81,95.81,0,0,1,24.9,10.4,78.36,78.36,0,0,1,18.9,16,99,99,0,0,1,13.5,20.4l-17.6,11.7q-11.4-21.6-29.7-31.6c-12.2-6.7-25.9-10.1-41.4-10.1a73.14,73.14,0,0,0-34.7,8.1A82.56,82.56,0,0,0,878.3,251a98.29,98.29,0,0,0-16.8,31,113.26,113.26,0,0,0-5.9,36,103.94,103.94,0,0,0,6.6,37.1,97.28,97.28,0,0,0,18.4,30.8,89.52,89.52,0,0,0,27.5,21,77.34,77.34,0,0,0,34.4,7.8,82.3,82.3,0,0,0,38-9.3c12.1-6.2,23.6-16,34.7-29.5V337.5H964V319.9h70.8V433.7h-19.2v-34Z" transform="translate(-157.9 -100.74)"/><path stroke-width="7" d="M1149.5,436.9a80.93,80.93,0,0,1-33.9-7,82.34,82.34,0,0,1-26.6-19.1,84,84,0,0,1-17.4-28,94.14,94.14,0,0,1-6.2-33.6,91.43,91.43,0,0,1,6.3-33.9,89.15,89.15,0,0,1,17.6-28,86.29,86.29,0,0,1,26.6-19.3,82.47,82.47,0,0,1,67.4,0,84.93,84.93,0,0,1,26.8,19.2,89.15,89.15,0,0,1,17.6,28,91.69,91.69,0,0,1,6.4,33.9,94.14,94.14,0,0,1-6.2,33.6,87.24,87.24,0,0,1-17.4,28,81.79,81.79,0,0,1-26.7,19.1A83.32,83.32,0,0,1,1149.5,436.9Zm-61.6-87.4a71.17,71.17,0,0,0,4.9,26.6,71.94,71.94,0,0,0,13.2,21.5,59.6,59.6,0,0,0,19.6,14.5,57,57,0,0,0,48-.2,63.5,63.5,0,0,0,19.7-14.7,70.46,70.46,0,0,0,13.4-21.7,75.28,75.28,0,0,0,0-53.3,69,69,0,0,0-13.4-21.8,66,66,0,0,0-19.7-14.7,55.36,55.36,0,0,0-24-5.4,53.2,53.2,0,0,0-23.8,5.4,64.58,64.58,0,0,0-19.6,14.8,71.1,71.1,0,0,0-13.4,22A73.69,73.69,0,0,0,1087.9,349.5Z" transform="translate(-157.9 -100.74)"/><path stroke-width="7" d="M1272.1,195.6h22.2V395.1c0,6.3,1.7,11.3,5.2,14.8s8.4,5.4,14.7,5.4a47.64,47.64,0,0,0,8.5-1,56.26,56.26,0,0,0,9.1-2.6l3.9,17.9a67.36,67.36,0,0,1-15.2,4.2,89.65,89.65,0,0,1-15.5,1.6c-10.2,0-18.3-2.9-24.1-8.6s-8.8-13.9-8.8-24.3V195.6Z" transform="translate(-157.9 -100.74)"/><path stroke-width="7" d="M1429.5,436.9a73.56,73.56,0,0,1-32.6-7.3,83.1,83.1,0,0,1-25.8-19.4,87.28,87.28,0,0,1-16.8-27.9,91.53,91.53,0,0,1-6-33.1,97.17,97.17,0,0,1,5.9-34.1,91,91,0,0,1,16.1-28.2,76.69,76.69,0,0,1,24.4-19.1,70,70,0,0,1,31.1-7c14.3,0,27.1,3.7,38.2,11.2a85.83,85.83,0,0,1,26.1,27.2V195.6h22.2V404.9c0,6.1,2.6,9.1,7.8,9.1v19.6a41.74,41.74,0,0,1-7.8,1,20,20,0,0,1-13.7-5.1,15.77,15.77,0,0,1-5.9-12.2V400.6a74.6,74.6,0,0,1-27.4,26.4A71.36,71.36,0,0,1,1429.5,436.9Zm4.9-19.6a51.2,51.2,0,0,0,17.4-3.3,70.1,70.1,0,0,0,17.4-9,60.76,60.76,0,0,0,13.9-13.4,35.66,35.66,0,0,0,7-16.5V322.6a56.71,56.71,0,0,0-9.5-16.5,75.7,75.7,0,0,0-14.2-13.5,65.38,65.38,0,0,0-17.1-9.1,54.42,54.42,0,0,0-17.9-3.3,52.44,52.44,0,0,0-24.8,5.9,62,62,0,0,0-19.1,15.5,68.88,68.88,0,0,0-12.2,22,78.66,78.66,0,0,0-4.2,25.4,72.11,72.11,0,0,0,18.2,47.8,63.64,63.64,0,0,0,20,14.8A55.27,55.27,0,0,0,1434.4,417.3Z" transform="translate(-157.9 -100.74)"/><path stroke-width="7" d="M1635.9,436.9a82,82,0,0,1-34.1-7,84.23,84.23,0,0,1-26.9-19.2,90.44,90.44,0,0,1-17.8-28.2,93.08,93.08,0,0,1-6.4-34.2,88.9,88.9,0,0,1,6.4-33.8,86.66,86.66,0,0,1,17.6-27.7,84.48,84.48,0,0,1,26.9-18.9,85.51,85.51,0,0,1,68,0,81.43,81.43,0,0,1,26.6,19.1,90,90,0,0,1,23.5,61v5.2a14.49,14.49,0,0,1-.3,3.6H1574a74.08,74.08,0,0,0,6.3,25.3,69,69,0,0,0,13.9,20,62.28,62.28,0,0,0,19.4,13.2,56.92,56.92,0,0,0,23.3,4.7,59.92,59.92,0,0,0,16.3-2.3,63.06,63.06,0,0,0,15-6.2,54.78,54.78,0,0,0,12.4-9.6,42.65,42.65,0,0,0,8.5-12.5l19.2,5.2a56.33,56.33,0,0,1-11.1,17.1,78.69,78.69,0,0,1-37.5,22.2A96,96,0,0,1,1635.9,436.9Zm62.6-97.2a68.11,68.11,0,0,0-20-44.3,61.72,61.72,0,0,0-19.2-12.7,60.07,60.07,0,0,0-23.3-4.6,60.7,60.7,0,0,0-56.3,36.9,75.6,75.6,0,0,0-6,24.8h124.8Z" transform="translate(-157.9 -100.74)"/><path stroke-width="7" d="M1896.7,433.6h-22.2V338.7c0-20.2-3-34.9-9-44S1850.3,281,1838,281a54.71,54.71,0,0,0-19.6,3.6,67.18,67.18,0,0,0-18.1,10.1,77.4,77.4,0,0,0-14.8,15.5,60.45,60.45,0,0,0-9.5,19.4v104h-22.2V263.8H1774v38.5a80.12,80.12,0,0,1,29.8-30,81.57,81.57,0,0,1,42.2-11.4c9.3,0,17.3,1.7,23.8,5.2a41.75,41.75,0,0,1,15.7,14.7c3.9,6.3,6.7,14,8.5,23.1a162.89,162.89,0,0,1,2.6,30.3Z" transform="translate(-157.9 -100.74)"/><path stroke-width="7" d="M2031.6,433.6V202.1h22.8V413.3h133.7v20.2H2031.6Z" transform="translate(-157.9 -100.74)"/><rect stroke-width="7" x="2059.2" y="163.06" width="22.2" height="169.9"/><path stroke-width="7" d="M2431,433.6h-22.2V338.7c0-20.2-3-34.9-9-44s-15.2-13.7-27.5-13.7a54.71,54.71,0,0,0-19.6,3.6,67.18,67.18,0,0,0-18.1,10.1,77.4,77.4,0,0,0-14.8,15.5,60.45,60.45,0,0,0-9.5,19.4v104h-22.2V263.8h20.2v38.5a80.12,80.12,0,0,1,29.8-30,81.57,81.57,0,0,1,42.2-11.4c9.3,0,17.3,1.7,23.8,5.2a40.81,40.81,0,0,1,15.6,14.7c3.9,6.3,6.7,14,8.5,23.1a162.89,162.89,0,0,1,2.6,30.3Z" transform="translate(-157.9 -100.74)"/><path stroke-width="7" d="M2599.5,433.6l-62.6-87-36.5,33.9v53.1h-22.2v-238h22.2V357.3l95.5-93.2H2621l-69.4,69.4,72.1,100.1Z" transform="translate(-157.9 -100.74)"/><path stroke-width="7" d="M2874,245.5c-6.5-7.4-15.2-13.4-26.1-17.9s-23.3-6.9-37.2-6.9c-20.4,0-35.3,3.9-44.7,11.6s-14,18.2-14,31.5c0,7,1.3,12.7,3.8,17.1a32.25,32.25,0,0,0,11.6,11.6,80.86,80.86,0,0,0,20.1,8.5c8.1,2.4,17.8,4.8,28.9,7.2a321.09,321.09,0,0,1,33.4,8.8,95.51,95.51,0,0,1,25.3,12.2,50.56,50.56,0,0,1,16,17.8c3.7,7,5.6,15.7,5.6,26.1,0,10.7-2.1,19.9-6.2,27.7a55.48,55.48,0,0,1-17.4,19.6,77.1,77.1,0,0,1-26.4,11.6,146.11,146.11,0,0,1-33.6,3.8q-53.85,0-92.9-33.6l11.4-18.6a97.49,97.49,0,0,0,14.8,12.4,106.82,106.82,0,0,0,19.2,10.3,128.45,128.45,0,0,0,22.6,6.9,121,121,0,0,0,25.4,2.4q27.75,0,43.2-9.9c10.3-6.6,15.5-16.7,15.5-30.2,0-7.2-1.5-13.2-4.4-18.1a38.3,38.3,0,0,0-13.2-12.7,97.11,97.11,0,0,0-21.8-9.3q-13.05-3.9-30.3-7.8c-12.2-2.8-22.8-5.8-31.9-8.8a84.18,84.18,0,0,1-23.1-11.4,44.44,44.44,0,0,1-14.2-16.5c-3.1-6.4-4.7-14.3-4.7-23.7q0-16,6-28.5a56.8,56.8,0,0,1,17.1-20.9,80,80,0,0,1,26.1-12.7,120.15,120.15,0,0,1,33.2-4.4c15.4,0,29.2,2.3,41.2,7a110.73,110.73,0,0,1,32.8,19.7Z" transform="translate(-157.9 -100.74)"/><path stroke-width="7" d="M2920.3,348.2a91.37,91.37,0,0,1,6.2-33.9,86.24,86.24,0,0,1,17.4-27.9,82.78,82.78,0,0,1,26.9-18.8,83.91,83.91,0,0,1,34.6-6.8c16.1,0,30.1,3.6,42.1,10.9a70.17,70.17,0,0,1,27.1,29.5l-21.5,6.8a52.29,52.29,0,0,0-20-20.4,59.14,59.14,0,0,0-52.8-2.1,62.3,62.3,0,0,0-19.6,14.2,64.31,64.31,0,0,0-13,21.4,78,78,0,0,0,.2,54.1,68.21,68.21,0,0,0,13.4,22,66,66,0,0,0,19.7,14.7,55.36,55.36,0,0,0,24,5.4,58.06,58.06,0,0,0,16.1-2.3,60.93,60.93,0,0,0,14.8-6.4,52.83,52.83,0,0,0,11.7-9.3,30.62,30.62,0,0,0,6.9-11.1l21.8,6.5a55,55,0,0,1-10.4,16.8,70.27,70.27,0,0,1-16.3,13.4,77.4,77.4,0,0,1-20.5,8.8,87.33,87.33,0,0,1-23.3,3.1,82.65,82.65,0,0,1-61.3-26.2,90.44,90.44,0,0,1-17.8-28.2A88.82,88.82,0,0,1,2920.3,348.2Z" transform="translate(-157.9 -100.74)"/><path stroke-width="7" d="M3253.8,433.6h-22.2V338.7c0-19.3-3.3-33.8-9.9-43.4s-16.4-14.4-29.2-14.4a48.09,48.09,0,0,0-18.7,3.8,67.78,67.78,0,0,0-17.4,10.3,71.17,71.17,0,0,0-14.2,15.3,66.25,66.25,0,0,0-9,19.2v104H3111v-238h22.2V302.1a76.35,76.35,0,0,1,28-30.3,71.92,71.92,0,0,1,38.8-11c9.8,0,18,1.8,24.8,5.4a45.25,45.25,0,0,1,16.6,15,64.81,64.81,0,0,1,9.4,23.1,142,142,0,0,1,2.9,29.8Z" transform="translate(-157.9 -100.74)"/><path stroke-width="7" d="M3373.4,436.9a79.34,79.34,0,0,1-33.9-7,82.34,82.34,0,0,1-26.6-19.1,84,84,0,0,1-17.4-28,94.14,94.14,0,0,1-6.2-33.6,89.63,89.63,0,0,1,6.4-33.9,87.86,87.86,0,0,1,17.6-28,83.53,83.53,0,0,1,26.6-19.3,79.33,79.33,0,0,1,33.6-7.2,78.37,78.37,0,0,1,33.7,7.2,83.56,83.56,0,0,1,26.7,19.2,89.15,89.15,0,0,1,17.6,28,91.49,91.49,0,0,1,6.4,33.9,94.14,94.14,0,0,1-6.2,33.6,87.24,87.24,0,0,1-17.4,28,82,82,0,0,1-60.9,26.2Zm-61.6-87.4a71.17,71.17,0,0,0,4.9,26.6,71.94,71.94,0,0,0,13.2,21.5,58.64,58.64,0,0,0,19.6,14.5,57,57,0,0,0,48-.2,62,62,0,0,0,19.7-14.7,70.46,70.46,0,0,0,13.4-21.7,75.28,75.28,0,0,0,0-53.3,69,69,0,0,0-13.4-21.8,66,66,0,0,0-19.7-14.7,55.36,55.36,0,0,0-24-5.4,53.17,53.17,0,0,0-23.8,5.4,64.58,64.58,0,0,0-19.6,14.8,72.79,72.79,0,0,0-18.3,49Z" transform="translate(-157.9 -100.74)"/><path stroke-width="7" d="M3567.4,436.9a80.93,80.93,0,0,1-33.9-7,82.34,82.34,0,0,1-26.6-19.1,84,84,0,0,1-17.4-28,94.14,94.14,0,0,1-6.2-33.6,90.74,90.74,0,0,1,24-61.9,83.53,83.53,0,0,1,26.6-19.3,82.47,82.47,0,0,1,67.4,0,83.56,83.56,0,0,1,26.7,19.2,90.22,90.22,0,0,1,17.6,28,91.69,91.69,0,0,1,6.4,33.9,94.14,94.14,0,0,1-6.2,33.6,87.24,87.24,0,0,1-17.4,28,81.79,81.79,0,0,1-26.7,19.1A83.64,83.64,0,0,1,3567.4,436.9Zm-61.6-87.4a71.17,71.17,0,0,0,4.9,26.6,71.94,71.94,0,0,0,13.2,21.5,58.64,58.64,0,0,0,19.6,14.5,57,57,0,0,0,48-.2,62,62,0,0,0,19.7-14.7,70.46,70.46,0,0,0,13.4-21.7,75.28,75.28,0,0,0,0-53.3,69,69,0,0,0-13.4-21.8,66,66,0,0,0-19.7-14.7,55.36,55.36,0,0,0-24-5.4,53.17,53.17,0,0,0-23.8,5.4,61.84,61.84,0,0,0-19.6,14.8,72.79,72.79,0,0,0-18.3,49Z" transform="translate(-157.9 -100.74)"/><path stroke-width="7" d="M3690,195.6h22.2V395.1c0,6.3,1.7,11.3,5.2,14.8s8.4,5.4,14.7,5.4a47.64,47.64,0,0,0,8.5-1,56.26,56.26,0,0,0,9.1-2.6l3.9,17.9a67.36,67.36,0,0,1-15.2,4.2,89.65,89.65,0,0,1-15.5,1.6c-10.2,0-18.3-2.9-24.1-8.6s-8.8-13.9-8.8-24.3Z" transform="translate(-157.9 -100.74)"/></svg>
